# Blender 4.3.2
# www.blender.org
mtllib basicgrass.mtl
o Plane
v -0.103880 -0.100000 0.000000
v 0.103880 -0.100000 0.000000
v -0.100815 0.116479 -0.000000
v 0.100815 0.116479 -0.000000
v -0.087927 0.462544 -0.000000
v 0.087927 0.462544 -0.000000
v -0.071397 0.674577 -0.000000
v 0.071397 0.674577 -0.000000
v -0.027993 0.896498 -0.000000
v 0.027993 0.896498 -0.000000
vn -0.0000 -0.0000 1.0000
vt 1.000000 0.000000
vt 0.000000 1.000000
vt 0.000000 0.000000
vt 1.000000 1.000000
s 0
f 2/1/1 3/2/1 1/3/1
f 4/4/1 5/2/1 3/2/1
f 6/4/1 7/2/1 5/2/1
f 8/4/1 9/2/1 7/2/1
f 2/1/1 4/4/1 3/2/1
f 4/4/1 6/4/1 5/2/1
f 6/4/1 8/4/1 7/2/1
f 8/4/1 10/4/1 9/2/1
